<svg width="512" height="512" viewBox="0 0 512 512" fill="none" xmlns="http://www.w3.org/2000/svg">
<rect x="44" y="44" width="424" height="424" rx="84" fill="#071426" stroke="#38BDF8" stroke-width="8"/>
<path d="M219.2 375.86C203.407 375.86 190.833 372.333 181.48 365.28C172.28 358.227 167.68 346.573 167.68 330.32V297.43C167.68 292.677 166.223 289.227 163.31 287.08C160.397 284.78 155.873 283.63 149.74 283.63V246.83C155.873 246.83 160.397 245.757 163.31 243.61C166.223 241.31 167.68 237.783 167.68 233.03V201.06C167.68 184.653 172.28 173 181.48 166.1C190.833 159.047 203.407 155.52 219.2 155.52H225.18V190.48H219.2C214.753 190.48 211.61 191.477 209.77 193.47C208.083 195.31 207.24 197.993 207.24 201.52V235.56C207.24 244.913 205.17 251.737 201.03 256.03C197.043 260.17 190.987 262.623 182.86 263.39V267.07C190.987 267.683 197.043 270.137 201.03 274.43C205.17 278.57 207.24 285.393 207.24 294.9V329.86C207.24 333.387 208.083 336.07 209.77 337.91C211.61 339.903 214.753 340.9 219.2 340.9H225.18V375.86H219.2ZM292.924 375.86H286.944V340.9H292.924C297.371 340.9 300.437 339.903 302.124 337.91C303.964 336.07 304.884 333.387 304.884 329.86V294.9C304.884 285.393 306.877 278.57 310.864 274.43C315.004 270.137 321.137 267.683 329.264 267.07V263.39C321.137 262.623 315.004 260.17 310.864 256.03C306.877 251.737 304.884 244.913 304.884 235.56V201.52C304.884 197.993 303.964 195.31 302.124 193.47C300.437 191.477 297.371 190.48 292.924 190.48H286.944V155.52H292.924C308.717 155.52 321.214 159.047 330.414 166.1C339.767 173 344.444 184.653 344.444 201.06V233.03C344.444 237.783 345.901 241.31 348.814 243.61C351.727 245.757 356.251 246.83 362.384 246.83V283.63C356.251 283.63 351.727 284.78 348.814 287.08C345.901 289.227 344.444 292.677 344.444 297.43V330.32C344.444 346.573 339.767 358.227 330.414 365.28C321.214 372.333 308.717 375.86 292.924 375.86Z" fill="#38BDF8"/>
</svg>
