<?xml version="1.0" encoding="UTF-8"?>
<svg id="Calque_1" data-name="Calque 1" xmlns="http://www.w3.org/2000/svg" xmlns:xlink="http://www.w3.org/1999/xlink" viewBox="0 0 775.54 324.58">
  <defs>
    <style>
      .cls-1 {
        fill: #e23397;
      }

      .cls-2 {
        fill: url(#Dégradé_sans_nom_11);
      }
    </style>
    <linearGradient id="Dégradé_sans_nom_11" data-name="Dégradé sans nom 11" x1="350.18" y1="-5.24" x2="512.46" y2="275.83" gradientUnits="userSpaceOnUse">
      <stop offset="0" stop-color="#fbbd22"/>
      <stop offset="1" stop-color="#f8911b"/>
    </linearGradient>
  </defs>
  <path class="cls-2" d="M340.55.36c1.9-.72,3.86-.27,5.67.59,4.15,1.97,13.83,12.81,18.85,16.63,6.36,4.85,19.6,13.72,26.96,13.66,4.72-.04,13.59-5.11,18.94-6.59,17.52-4.84,35.36-4.72,52.79.58,10.5,3.2,13.22,8.31,24.87,3.69,14.15-5.62,26.01-18.79,38.31-28.53,13.08-4.36,5.51,30.19,3.64,37.53-2.72,10.68-7.18,20.42-12.26,29.6,30.34,42.07,32.91,105.13,13.43,154.85-28.33,72.29-92.98,106.45-155.85,101.78-3.29-.24-10.66-1.02-13.5-2.26-4.35-1.89-4.31-5.81-3.49-10.79.94-5.72,11.33-31.83,10.83-34.34-52.85-48.33-60.65-150.77-15.25-210.1-6.38-9.5-11.56-22.38-14.27-34.28-1.36-5.97-5.76-29.71.33-32.02Z"/>
  <path class="cls-1" d="M263,150.18l19.46,12.03c44.84,36.9,32.23,110.29-23.69,129.23-29.82,10.1-91.58,8.3-124.31,6.77-4.18-.2-13.24-.54-16.73-1.27-6.67-1.38-11.69-8.55-11.77-15.23,2.07-75.31-2.6-151.94,0-227.09.2-5.67.32-18.05,1.28-22.72,1.37-6.73,8.8-10.82,15.24-10.76,56.99,4.87,163.41-22.24,174.41,59.66,3.74,27.8-5.86,58.91-33.88,69.39ZM177,78.17v50.5c0,.11,1.39,1.5,1.5,1.5h28c.4,0,6.57-2.08,7.5-2.5,11.91-5.34,15.15-16.87,14.04-29.04-2.26-24.8-32.97-22.78-51.04-20.46ZM177,241.17c12.69,1.42,30.06,2.58,42.03-2.47,21.56-9.09,21.26-41.7-.03-51.04-7.47-3.27-30.68-4.96-38.48-3.47-1.1.21-3.53,1.73-3.53,2.47v54.5Z"/>
  <path class="cls-1" d="M586.15,22.82c7.7-1.29,33.59-1.11,41.5.02,8.8,1.26,14.97,7.33,15.8,16.2,1.67,17.76.76,42.48,1,61,.45,34.01-3.33,76.16.08,108.92,3.85,36.95,53.92,38.66,57.75-2.01,4.84-51.44-3.49-109.82.09-161.91.87-12.65,3.41-21.29,17.51-22.49,9.74-.83,30.42-1.01,39.92.15,8.35,1.01,14.41,5.42,14.65,14.35-2.72,57.79,3.47,118.66,0,176.09-4.08,67.77-55.11,95.71-118.54,88.44-49.84-5.71-80.54-39.67-83.5-89.5-3.38-56.84,2.54-116.85-.05-174.03.21-7.67,6.33-13.98,13.78-15.22Z"/>
  <path class="cls-1" d="M14.74,21.9c7.98-1.33,41.55-1.34,49.52,0s12.34,6.89,13.65,14.35l.09,245.92c-.82,6.38-4.31,12.09-10.32,14.68-9.14,3.96-29.87,1.43-40.2.82-12.65-.74-23.36,2.32-27.4-13.6l-.09-246.92c.46-7.51,7.54-14.05,14.74-15.26Z"/>
</svg>