<svg xmlns="http://www.w3.org/2000/svg" id="Calque_1" viewBox="0 0 465.92 147.87"><defs><style>.cls-1{fill:none}.cls-2{fill:#fff}.cls-3{fill:#05ebcf}</style></defs><path d="M107.79 42.94H64.72c-10.34 0-18.73 8.39-18.73 18.73v43.07h43.07c10.34 0 18.73-8.39 18.73-18.73V42.94Z" class="cls-3"/><path d="M231.65 52.95h9.9v3.81a3.53 3.53 0 0 1-3.53 3.53h-9.9v-3.81a3.53 3.53 0 0 1 3.53-3.53M134.93 81.62l13.39-1.25c.34 5.51 3.99 7.91 10.87 7.91 5.78 0 8.71-1.46 8.71-4.47 0-2.71-1.86-3.74-10.01-5.36l-8.16-1.58c-8.13-1.58-13.57-4.93-13.57-12.08 0-8.58 8.31-12.97 21.7-12.97 14.12 0 22.1 5.78 22.1 14.76l-12.11 1.34c-.3-5.45-3.26-8.31-10.26-8.31-5.75 0-8.61 1.58-8.61 4.54 0 2.04.76 3.13 8.92 4.69l8.16 1.55c8.16 1.55 15.1 3.71 15.1 11.9 0 8.86-8.71 13.79-22.83 13.79s-23.01-5.14-23.38-14.46M185.63 52.65h13.24v11.93c0 4.32-.27 6.85-1.22 10.77l.52.27 12.91-12.33h14.09l-12.05 11.72 12.18 20.24h-13.7l-8.04-13.85-4.69 4.5v9.34h-13.24V52.65ZM228.12 63.3h13.21v31.96h-13.21zM246.38 52.65h13.24v42.61h-13.24zM264.55 52.65h13.24v42.61h-13.24zM330.54 79.71v-.85c0-10.87 7.49-16.38 22.37-16.38s22.34 5.51 22.34 16.38v.85c0 10.87-7.49 16.38-22.34 16.38s-22.37-5.51-22.37-16.38m31.23-.18v-.49c0-5.94-3.04-8.98-8.86-8.98s-8.89 3.04-8.89 8.98v.49c0 5.9 3.04 8.98 8.89 8.98s8.86-3.07 8.86-8.98M326.74 78.31c0-10.26-7.64-15.8-21.98-15.8s-22.65 5.69-22.65 16.31v.94c0 10.87 7.85 16.28 22.62 16.28 18.25 0 21.15-8.46 21.15-8.46l-10.69-3.34s-1.73 4.16-10.37 4.16-8.95-6.24-8.95-6.24h30.59c.18-1.4.27-2.56.27-3.87m-13.51-2.47h-17.26c.82-4.14 3.9-6.33 8.86-6.33 5.45 0 8.4 2.34 8.4 6.21v.12ZM378.44 84.39l12.87-.34c-.12 3.99 2.68 5.57 8.13 5.57 4.87 0 7.43-.88 7.43-2.8 0-2.37-3.47-3.07-9.31-3.99l-5.84-.91c-5.81-.91-12.57-2.28-12.57-9.04s5.93-10.38 19.51-10.38 20.39 3.5 20.3 10.56l-12.51.43c.15-3.68-2.53-4.84-7.88-4.84-4.47 0-6.67.76-6.67 2.71 0 1.8 2.65 2.46 8.52 3.29l5.84.82c5.9.82 13.67 2.22 13.67 9.86 0 7-6 10.53-20.42 10.53s-21-3.41-21.06-11.48" class="cls-2"/><path d="M0 0h465.92v147.87H0z" class="cls-1"/></svg>